<?xml version="1.0" encoding="UTF-8"?>
<svg width="91px" height="91px" viewBox="0 0 91 91" version="1.1" xmlns="http://www.w3.org/2000/svg" xmlns:xlink="http://www.w3.org/1999/xlink">
    <title>Group 6 Copy</title>
    <g id="Landing-Page" stroke="none" stroke-width="1" fill="none" fill-rule="evenodd">
        <g id="Home-Final-Copy-5" transform="translate(-674.000000, -4218.000000)">
            <g id="What-you" transform="translate(0.000000, 3666.000000)">
                <g id="Decentralized" transform="translate(539.000000, 552.000000)">
                    <g id="Group-6-Copy" transform="translate(135.000000, 0.000000)">
                        <circle id="Oval" fill-opacity="0.1" fill="#FFFFFF" cx="45.5" cy="45.5" r="45.5"></circle>
                        <path d="M47,52 L47,64.5 C47,65.3284271 46.3284271,66 45.5,66 C44.6715729,66 44,65.3284271 44,64.5 L44,52 L47,52 Z M39,44 L39,47 L25.5,47 C24.6715729,47 24,46.3284271 24,45.5 C24,44.6715729 24.6715729,44 25.5,44 L39,44 Z M65.5,44 C66.3284271,44 67,44.6715729 67,45.5 C67,46.3284271 66.3284271,47 65.5,47 L52,47 L52,44 L65.5,44 Z M45.5,25 C46.3284271,25 47,25.6715729 47,26.5 L47,39 L44,39 L44,26.5 C44,25.6715729 44.6715729,25 45.5,25 Z" id="Combined-Shape" fill="#FFFFFF" fill-rule="nonzero"></path>
                        <path d="M57.107874,54.9871888 L65.5606602,63.4393398 L65.5606602,63.4393398 L63.4393398,65.5606602 L54.9871888,57.107874 C54.4016153,56.5222565 54.4016331,55.5728241 54.9872286,54.9872286 C55.5728241,54.4016331 56.5222565,54.4016153 57.107874,54.9871888 Z M36.0132591,57.1090189 L27.5606602,65.5606602 L27.5606602,65.5606602 L25.4393398,63.4393398 L33.8916778,54.9876369 C34.4775509,54.4018079 35.4273908,54.4018034 36.0132694,54.987627 C36.5990728,55.5733753 36.5991174,56.5231056 36.013369,57.108909 C36.0133324,57.1089457 36.0132957,57.1089823 36.0132591,57.1090189 Z M63.4393398,25.4393398 L65.5606602,27.5606602 L57.1090189,36.0132591 C56.5232763,36.5990682 55.5735459,36.599122 54.9877369,36.0133793 C54.9877002,36.0133426 54.9876636,36.013306 54.987627,36.0132694 C54.4018034,35.4273908 54.4018079,34.4775509 54.9876369,33.8916778 L63.4393398,25.4393398 L63.4393398,25.4393398 Z M27.5606602,25.4393398 L36.0128112,33.892126 C36.5983847,34.4777435 36.5983669,35.4271759 36.0127714,36.0127714 C35.4271759,36.5983669 34.4777435,36.5983847 33.892126,36.0128112 L25.4393398,27.5606602 L25.4393398,27.5606602 L27.5606602,25.4393398 Z" id="Shape" fill="#FFFFFF" fill-rule="nonzero"></path>
                        <path d="M45.5,9.5 C42.1862915,9.5 39.5,12.1862915 39.5,15.5 C39.5,18.8137085 42.1862915,21.5 45.5,21.5 C48.8137085,21.5 51.5,18.8137085 51.5,15.5 C51.5,12.1862915 48.8137085,9.5 45.5,9.5 Z M45.5,12.5 C47.1568542,12.5 48.5,13.8431458 48.5,15.5 C48.5,17.1568542 47.1568542,18.5 45.5,18.5 C43.8431458,18.5 42.5,17.1568542 42.5,15.5 C42.5,13.8431458 43.8431458,12.5 45.5,12.5 Z" id="Oval" fill="#5C5C5E" fill-rule="nonzero"></path>
                        <path d="M45.5,69.5 C42.1862915,69.5 39.5,72.1862915 39.5,75.5 C39.5,78.8137085 42.1862915,81.5 45.5,81.5 C48.8137085,81.5 51.5,78.8137085 51.5,75.5 C51.5,72.1862915 48.8137085,69.5 45.5,69.5 Z M45.5,72.5 C47.1568542,72.5 48.5,73.8431458 48.5,75.5 C48.5,77.1568542 47.1568542,78.5 45.5,78.5 C43.8431458,78.5 42.5,77.1568542 42.5,75.5 C42.5,73.8431458 43.8431458,72.5 45.5,72.5 Z" id="Oval-Copy-171" fill="#5C5C5E" fill-rule="nonzero"></path>
                        <path d="M75.5,39.5 C72.1862915,39.5 69.5,42.1862915 69.5,45.5 C69.5,48.8137085 72.1862915,51.5 75.5,51.5 C78.8137085,51.5 81.5,48.8137085 81.5,45.5 C81.5,42.1862915 78.8137085,39.5 75.5,39.5 Z M75.5,42.5 C77.1568542,42.5 78.5,43.8431458 78.5,45.5 C78.5,47.1568542 77.1568542,48.5 75.5,48.5 C73.8431458,48.5 72.5,47.1568542 72.5,45.5 C72.5,43.8431458 73.8431458,42.5 75.5,42.5 Z" id="Oval-Copy-173" fill="#5C5C5E" fill-rule="nonzero"></path>
                        <path d="M15.5,39.5 C12.1862915,39.5 9.5,42.1862915 9.5,45.5 C9.5,48.8137085 12.1862915,51.5 15.5,51.5 C18.8137085,51.5 21.5,48.8137085 21.5,45.5 C21.5,42.1862915 18.8137085,39.5 15.5,39.5 Z M15.5,42.5 C17.1568542,42.5 18.5,43.8431458 18.5,45.5 C18.5,47.1568542 17.1568542,48.5 15.5,48.5 C13.8431458,48.5 12.5,47.1568542 12.5,45.5 C12.5,43.8431458 13.8431458,42.5 15.5,42.5 Z" id="Oval-Copy-172" fill="#5C5C5E" fill-rule="nonzero"></path>
                        <path d="M23.5,18 C20.4624339,18 18,20.4624339 18,23.5 C18,26.5375661 20.4624339,29 23.5,29 C26.5375661,29 29,26.5375661 29,23.5 C29,20.4624339 26.5375661,18 23.5,18 Z M23.5,20.75 C25.0187831,20.75 26.25,21.9812169 26.25,23.5 C26.25,25.0187831 25.0187831,26.25 23.5,26.25 C21.9812169,26.25 20.75,25.0187831 20.75,23.5 C20.75,21.9812169 21.9812169,20.75 23.5,20.75 Z" id="Oval-Copy-175" fill="#5C5C5E" fill-rule="nonzero"></path>
                        <path d="M67.5,18 C64.4624339,18 62,20.4624339 62,23.5 C62,26.5375661 64.4624339,29 67.5,29 C70.5375661,29 73,26.5375661 73,23.5 C73,20.4624339 70.5375661,18 67.5,18 Z M67.5,20.75 C69.0187831,20.75 70.25,21.9812169 70.25,23.5 C70.25,25.0187831 69.0187831,26.25 67.5,26.25 C65.9812169,26.25 64.75,25.0187831 64.75,23.5 C64.75,21.9812169 65.9812169,20.75 67.5,20.75 Z" id="Oval-Copy-178" fill="#5C5C5E" fill-rule="nonzero"></path>
                        <path d="M67.5,62 C64.4624339,62 62,64.4624339 62,67.5 C62,70.5375661 64.4624339,73 67.5,73 C70.5375661,73 73,70.5375661 73,67.5 C73,64.4624339 70.5375661,62 67.5,62 Z M67.5,64.75 C69.0187831,64.75 70.25,65.9812169 70.25,67.5 C70.25,69.0187831 69.0187831,70.25 67.5,70.25 C65.9812169,70.25 64.75,69.0187831 64.75,67.5 C64.75,65.9812169 65.9812169,64.75 67.5,64.75 Z" id="Oval-Copy-176" fill="#5C5C5E" fill-rule="nonzero"></path>
                        <path d="M23.5,62 C20.4624339,62 18,64.4624339 18,67.5 C18,70.5375661 20.4624339,73 23.5,73 C26.5375661,73 29,70.5375661 29,67.5 C29,64.4624339 26.5375661,62 23.5,62 Z M23.5,64.75 C25.0187831,64.75 26.25,65.9812169 26.25,67.5 C26.25,69.0187831 25.0187831,70.25 23.5,70.25 C21.9812169,70.25 20.75,69.0187831 20.75,67.5 C20.75,65.9812169 21.9812169,64.75 23.5,64.75 Z" id="Oval-Copy-177" fill="#5C5C5E" fill-rule="nonzero"></path>
                        <path d="M45.5,37.5 C41.081722,37.5 37.5,41.081722 37.5,45.5 C37.5,49.918278 41.081722,53.5 45.5,53.5 C49.918278,53.5 53.5,49.918278 53.5,45.5 C53.5,41.081722 49.918278,37.5 45.5,37.5 Z M45.5,40.5 C48.2614237,40.5 50.5,42.7385763 50.5,45.5 C50.5,48.2614237 48.2614237,50.5 45.5,50.5 C42.7385763,50.5 40.5,48.2614237 40.5,45.5 C40.5,42.7385763 42.7385763,40.5 45.5,40.5 Z" id="Oval-Copy-174" fill="#FFFFFF" fill-rule="nonzero"></path>
                    </g>
                </g>
            </g>
        </g>
    </g>
</svg>