<?xml version="1.0" encoding="UTF-8"?>
<svg width="91px" height="91px" viewBox="0 0 91 91" version="1.1" xmlns="http://www.w3.org/2000/svg" xmlns:xlink="http://www.w3.org/1999/xlink">
    <title>Group 6 Copy 2</title>
    <g id="Landing-Page" stroke="none" stroke-width="1" fill="none" fill-rule="evenodd">
        <g id="Home-Final" transform="translate(-1065.000000, -3928.000000)" fill="#FFFFFF">
            <g id="What-you" transform="translate(0.000000, 3666.000000)">
                <g id="Group-7" transform="translate(930.000000, 262.000000)">
                    <g id="Group-6-Copy-2" transform="translate(135.000000, 0.000000)">
                        <circle id="Oval" fill-opacity="0.1" cx="45.5" cy="45.5" r="45.5"></circle>
                        <path d="M24.5,30 C25.3284271,30 26,30.6715729 26,31.5 L26,72.5 C26,73.3284271 25.3284271,74 24.5,74 C23.6715729,74 23,73.3284271 23,72.5 L23,31.5 C23,30.6715729 23.6715729,30 24.5,30 Z" id="Rectangle-Copy-8" opacity="0.281947545"></path>
                        <path d="M23.5,40 L25.5,40 C27.4329966,40 29,41.5670034 29,43.5 L29,60.5 C29,62.4329966 27.4329966,64 25.5,64 L23.5,64 C21.5670034,64 20,62.4329966 20,60.5 L20,43.5 C20,41.5670034 21.5670034,40 23.5,40 Z" id="Rectangle-Copy-19"></path>
                        <path d="M45.5,21 C46.3284271,21 47,21.6715729 47,22.5 L47,53.5 C47,54.3284271 46.3284271,55 45.5,55 C44.6715729,55 44,54.3284271 44,53.5 L44,22.5 C44,21.6715729 44.6715729,21 45.5,21 Z" id="Rectangle-Copy-21" opacity="0.281947545"></path>
                        <path d="M44.5,31 L46.5,31 C48.4329966,31 50,32.5670034 50,34.5 L50,41.5 C50,43.4329966 48.4329966,45 46.5,45 L44.5,45 C42.5670034,45 41,43.4329966 41,41.5 L41,34.5 C41,32.5670034 42.5670034,31 44.5,31 Z" id="Rectangle-Copy-20"></path>
                        <path d="M66.5,24 C67.3284271,24 68,24.6715729 68,25.5 L68,63.5 C68,64.3284271 67.3284271,65 66.5,65 C65.6715729,65 65,64.3284271 65,63.5 L65,25.5 C65,24.6715729 65.6715729,24 66.5,24 Z" id="Rectangle-Copy-23" opacity="0.281947545"></path>
                        <path d="M65.5,34 L67.5,34 C69.4329966,34 71,35.5670034 71,37.5 L71,51.5 C71,53.4329966 69.4329966,55 67.5,55 L65.5,55 C63.5670034,55 62,53.4329966 62,51.5 L62,37.5 C62,35.5670034 63.5670034,34 65.5,34 Z" id="Rectangle-Copy-22"></path>
                    </g>
                </g>
            </g>
        </g>
    </g>
</svg>