<?xml version="1.0" encoding="UTF-8"?>
<svg width="91px" height="91px" viewBox="0 0 91 91" version="1.1" xmlns="http://www.w3.org/2000/svg" xmlns:xlink="http://www.w3.org/1999/xlink">
    <title>Group 6</title>
    <g id="Landing-Page" stroke="none" stroke-width="1" fill="none" fill-rule="evenodd">
        <g id="Home-Final-Copy-5" transform="translate(-285.000000, -4218.000000)">
            <g id="What-you" transform="translate(0.000000, 3666.000000)">
                <g id="Crypto-Lending" transform="translate(150.000000, 552.000000)">
                    <g id="Group-6" transform="translate(135.000000, 0.000000)">
                        <circle id="Oval" fill-opacity="0.1" fill="#FFFFFF" cx="45.5" cy="45.5" r="45.5"></circle>
                        <path d="M27.105636,47.3603284 L52.4831044,47.3603284 C54.0403921,47.3603284 55.3028232,48.6154112 55.3028232,50.1636344 C55.3028232,51.7118575 54.0403921,52.9669403 52.4831044,52.9669403 L42.0094607,52.9665744 L42.0094607,55.7698803 L58.6562907,55.770232 C59.087698,55.7702411 59.5008284,55.596039 59.8019789,55.2871367 L69.9382356,44.8899673 L69.9382356,44.8899673 C71.0448397,43.7548786 72.8515662,43.7019706 74.0228731,44.7519897 L74.1181883,44.8412703 L74.134516,44.8573766 C75.2628507,45.9791436 75.2879248,47.7823988 74.2097383,48.9344541 L74.109192,49.0368538 L59.7965478,62.9273946 C59.4979827,63.2171545 59.0982896,63.3792196 58.6822344,63.3792196 L29.5225377,63.3792196 L29.5225377,63.3792196 L20.787052,72.1781696 C19.6975488,73.2755881 17.9246985,73.2820047 16.82728,72.1925016 C16.2977884,71.6668291 16,70.9515681 16,70.2054495 L16,59.2658417 C16,58.9533477 16.1219008,58.6531797 16.3397803,58.4291685 L27.105636,47.3603284 L27.105636,47.3603284 Z" id="Path" fill="#5D5D5E"></path>
                        <path d="M47.5,14 C58.8218374,14 68,23.1781626 68,34.5 C68,37.5585801 67.3301746,40.460714 66.1292125,43.0677131 L59.3,50.07 L59.298862,49.9294324 C59.21039,47.3179151 57.6479179,45.0836449 55.4189737,44.0214685 L56.0925071,43.5880734 L56.5682309,43.2711399 L56.7952495,43.1098781 L56.8848129,43.0387734 C57.6962199,42.3313507 58.3086529,41.5694337 58.7221302,40.7529996 C59.1356076,39.9365655 59.3514309,39.0820963 59.3696067,38.1895666 C59.3877824,37.2970368 59.2091923,36.4086372 58.8338309,35.5243412 C57.7934271,33.0733033 55.7044009,32.1337217 52.5666897,32.705568 C53.1168476,32.2111329 53.5576885,31.7063861 53.8892258,31.1913122 C54.2207631,30.6762383 54.4552956,30.1598077 54.5928302,29.6420047 C54.7303649,29.1242017 54.7763605,28.6112309 54.7308185,28.1030767 C54.6852765,27.5949225 54.558467,27.0957491 54.3503863,26.6055415 C53.9872649,25.7500812 53.5166921,25.042339 52.9386536,24.4822936 C52.3606151,23.9222482 51.6596218,23.533514 50.8356527,23.3160793 C50.0116835,23.0986446 49.0616343,23.0651877 47.9854766,23.2157076 C47.8549189,23.2339684 47.7016289,23.2618408 47.5256067,23.2993246 L47.1432528,23.3871076 C47.0744755,23.403874 47.0031725,23.4217084 46.9293436,23.4406107 L46.4560609,23.5668397 L45.9221591,23.7186995 L45.659437,23.7961996 L45.1205702,22.5388627 C44.8332017,21.8683463 44.0576379,21.5565631 43.386128,21.8416021 C42.7572259,22.1085552 42.4428405,22.8060843 42.6406257,23.4449786 L42.6870702,23.5718308 L42.8705342,24.0040448 C43.0398502,24.4029282 42.8810888,24.8587961 42.5157851,25.0708386 L42.4202266,25.1185954 L41.5557984,25.4855234 C41.1569151,25.6548393 40.7010472,25.4960779 40.4890047,25.1307743 L40.4412479,25.0352157 L40.2577839,24.6030016 C39.9730339,23.9321727 39.1983842,23.6191939 38.5275552,23.9039439 C37.8986531,24.170897 37.5842677,24.8684261 37.782053,25.5073204 L37.8284975,25.6341725 L38.0119615,26.0663866 C38.1812774,26.46527 38.022516,26.9211379 37.6572124,27.1331803 L37.5616538,27.1809372 L35.4825825,28.0634506 C35.0836991,28.2327665 34.8812301,28.6709754 34.9967105,29.0772672 L35.0322748,29.1780012 L35.5260619,30.3412906 C35.6361355,30.6006076 35.8661402,30.7860336 36.1371896,30.84175 L36.2556366,30.8575243 L38.1518838,30.9756649 C38.4330504,30.9931822 38.6844417,31.1483832 38.8271713,31.3854493 L38.8814584,31.4918985 L43.919,43.36 L29.0086377,43.3608074 C27.7211942,40.6789454 27,37.6736947 27,34.5 C27,23.1781626 36.1781626,14 47.5,14 Z M53.1592545,35.3041489 C53.5749561,35.4283041 53.9313912,35.6400018 54.2285705,35.9392483 C54.5257497,36.2384948 54.770216,36.6139924 54.9619768,37.0657523 C55.1455774,37.4982884 55.254096,37.9343283 55.2875358,38.373885 C55.3209756,38.8134418 55.2523151,39.2396127 55.0815522,39.6524105 C54.9107893,40.0652084 54.6194315,40.461129 54.2074702,40.8401842 C53.847004,41.1718575 53.3682812,41.4755609 52.7712905,41.7513011 L52.5081964,41.8677636 L49.3545667,43.2063999 C48.9556833,43.3757159 48.4998154,43.2169545 48.287773,42.8516508 L48.2400161,42.7560923 L46.3093824,38.2078042 C46.1400664,37.8089209 46.2988278,37.353053 46.6641315,37.1410105 L46.7596901,37.0932537 L49.8989019,35.7607373 C50.5813478,35.4710562 51.1914195,35.2915014 51.7291354,35.2220674 C52.2668512,35.1526334 52.7435528,35.1799936 53.1592545,35.3041489 Z M48.7741984,26.7774829 C49.5852016,26.9777338 50.2212145,27.6209227 50.6822562,28.7070689 C51.1269778,29.7547674 51.1101164,30.6637414 50.6316713,31.4340182 C50.1874008,32.1492752 49.3816946,32.773421 48.2145308,33.3064718 L47.9387689,33.4278664 L45.6213715,34.4115433 C45.2224881,34.5808592 44.7666203,34.4220978 44.5545778,34.0567941 L44.506821,33.9612356 L42.6129072,29.4994544 C42.4435912,29.100571 42.6023526,28.6447031 42.9676563,28.4326606 L43.0632149,28.3849038 L45.5968792,27.3094271 C46.9040994,26.754545 47.9631952,26.5772321 48.7741984,26.7774829 Z" id="Shape" fill="#FFFFFF"></path>
                    </g>
                </g>
            </g>
        </g>
    </g>
</svg>